<?xml version="1.0" encoding="UTF-8"?>
<svg xmlns="http://www.w3.org/2000/svg" viewBox="0 0 375 105" fill="white">
    <title>ZANXEY</title>
    <path d="M 12 20 L 4 38 L 30 38 L 2 85 L 54 85 L 62 67 L 36 67 L 64 20 Z"/>
    <path d="M 103 20 L 85 20 L 53 102 L 77 85 L 93 41 L 100 62 L 91 62 L 86 76 L 105 76 L 108 85 L 126 85 Z"/>
    <path d="M 193 20 L 175 20 L 175 50 L 131 20 L 131 85 L 149 85 L 149 55 L 193 85 Z"/>
    <path d="M 198 20 L 219 52 L 198 85 L 219 85 L 229 68 L 239 85 L 260 85 L 239 52 L 260 20 L 239 20 L 229 37 L 219 20 Z"/>
    <path d="M 265 20 L 265 85 L 306 85 L 306 69 L 282 69 L 282 62 L 306 48 L 282 48 L 282 36 L 306 36 L 306 20 Z"/>
    <path d="M 311 20 L 332 52 L 311 85 L 332 85 L 373 20 L 352 20 L 342 37 L 332 20 Z"/>
</svg>
